<?xml version="1.0" standalone="no"?>
<!DOCTYPE svg PUBLIC "-//W3C//DTD SVG 20010904//EN"
 "http://www.w3.org/TR/2001/REC-SVG-20010904/DTD/svg10.dtd">
<svg version="1.0" xmlns="http://www.w3.org/2000/svg"
 width="256.000000pt" height="256.000000pt" viewBox="0 0 256.000000 256.000000"
 preserveAspectRatio="xMidYMid meet">
<metadata>
Created by potrace 1.14, written by Peter Selinger 2001-2017
</metadata>
<g transform="translate(0.000000,256.000000) scale(0.100000,-0.100000)"
fill="#000000" stroke="none">
<path d="M0 1280 l0 -1280 1280 0 1280 0 0 1280 0 1280 -1280 0 -1280 0 0
-1280z m1324 1091 c33 -1 37 -3 26 -16 -7 -8 -19 -15 -26 -15 -8 0 -14 -6 -14
-13 0 -21 -42 -14 -78 13 -33 25 -33 25 -10 31 13 4 32 5 43 4 11 -2 37 -4 59
-4z m-23 -332 c-15 -44 -14 -49 8 -49 11 0 23 -4 26 -10 3 -5 -3 -10 -13 -10
-28 0 -32 -19 -27 -120 3 -59 2 -90 -5 -90 -7 0 -8 -6 0 -19 5 -11 10 -36 10
-56 0 -35 1 -37 28 -31 l27 5 -28 -13 c-29 -13 -27 -26 5 -26 11 0 18 -7 18
-19 0 -11 6 -22 13 -24 6 -3 2 -6 -10 -6 -12 -1 -23 5 -26 12 -3 9 -7 9 -20
-2 -12 -9 -14 -17 -7 -26 5 -6 8 -14 6 -16 -4 -4 -17 -95 -19 -126 -1 -31 -12
3 -13 40 -3 133 -3 139 -20 133 -27 -11 -35 5 -12 23 l22 18 -22 7 c-12 4 -22
12 -22 17 0 6 4 8 9 5 4 -3 16 1 26 8 23 16 29 136 7 136 -10 0 -10 3 1 15 16
15 21 105 6 105 -4 0 -4 12 0 27 4 15 4 48 0 73 -4 25 -5 56 -2 68 6 24 6 24
26 4 17 -18 18 -24 8 -53z m-66 -59 c-3 -5 -13 -10 -21 -10 -8 0 -12 5 -9 10
3 6 13 10 21 10 8 0 12 -4 9 -10z m145 -5 c7 -8 8 -15 2 -15 -5 0 -15 7 -22
15 -7 8 -8 15 -2 15 5 0 15 -7 22 -15z m79 -28 c9 2 26 -6 36 -18 20 -22 20
-22 0 -14 -11 4 -32 10 -47 12 -15 3 -29 12 -32 19 -4 11 -2 13 11 6 9 -5 23
-7 32 -5z m-439 -107 c-8 -5 -19 -10 -25 -10 -5 0 -3 5 5 10 8 5 20 10 25 10
6 0 3 -5 -5 -10z m-39 -53 c-8 -8 -11 -7 -11 4 0 20 13 34 18 19 3 -7 -1 -17
-7 -23z m439 -1 c0 -3 -4 -8 -10 -11 -5 -3 -10 -1 -10 4 0 6 5 11 10 11 6 0
10 -2 10 -4z m76 -41 c18 -13 18 -14 -4 -8 -12 3 -25 9 -28 14 -8 14 10 11 32
-6z m-448 -25 c-7 -11 -18 -20 -25 -20 -7 0 -13 -9 -13 -21 0 -11 5 -17 10
-14 6 3 10 2 10 -3 0 -5 -9 -12 -20 -15 -11 -3 -20 0 -20 5 0 16 -36 -34 -42
-59 -3 -12 -2 -23 3 -25 5 -2 -4 -15 -21 -30 -26 -23 -30 -24 -30 -8 0 11 8
23 18 29 16 9 16 11 -2 24 -17 13 -17 16 -3 38 8 13 18 43 22 67 8 50 23 57
17 7 -5 -38 9 -46 30 -17 11 15 67 61 76 62 1 0 -3 -9 -10 -20z m508 -8 c-3
-3 0 -12 7 -20 10 -13 9 -14 -7 -5 -23 13 -31 44 -10 36 8 -3 12 -8 10 -11z
m94 -29 c0 -9 14 -38 30 -65 37 -59 38 -69 5 -38 -14 13 -25 18 -25 12 0 -6 5
-14 10 -17 6 -3 10 -12 9 -18 0 -9 -2 -9 -6 1 -8 20 -23 14 -23 -10 0 -42 -16
8 -19 60 -1 8 -6 12 -13 10 -10 -4 -58 36 -58 47 0 7 34 -8 41 -17 3 -5 14 -6
23 -2 13 5 17 15 14 35 -3 15 -1 26 4 23 4 -3 8 -12 8 -21z m-190 -13 c0 -5
-4 -10 -10 -10 -5 0 -10 5 -10 10 0 6 5 10 10 10 6 0 10 -4 10 -10z m262 -132
c-7 -7 -12 -8 -12 -2 0 6 3 14 7 17 3 4 9 5 12 2 2 -3 -1 -11 -7 -17z m-762
-28 c0 -11 -2 -20 -4 -20 -2 0 -6 9 -9 20 -3 11 -1 20 4 20 5 0 9 -9 9 -20z
m790 0 c0 -5 -4 -10 -10 -10 -5 0 -10 5 -10 10 0 6 5 10 10 10 6 0 10 -4 10
-10z m-943 -22 c-3 -8 -6 -5 -6 6 -1 11 2 17 5 13 3 -3 4 -12 1 -19z m100 -10
c-3 -8 -6 -5 -6 6 -1 11 2 17 5 13 3 -3 4 -12 1 -19z m760 -10 c-3 -7 -5 -2
-5 12 0 14 2 19 5 13 2 -7 2 -19 0 -25z m-887 -68 c0 -5 -4 -10 -9 -10 -6 0
-13 5 -16 10 -3 6 1 10 9 10 9 0 16 -4 16 -10z m30 0 c0 -5 -2 -10 -4 -10 -3
0 -8 5 -11 10 -3 6 -1 10 4 10 6 0 11 -4 11 -10z m1024 -40 c3 -19 8 -54 11
-77 3 -24 2 -43 -3 -43 -6 0 -13 -20 -16 -45 -4 -25 -11 -45 -17 -45 -5 0 -9
-7 -9 -16 0 -9 -5 -12 -12 -8 -7 5 -8 3 -4 -5 5 -7 1 -20 -8 -30 -14 -15 -14
-18 -1 -18 8 0 17 8 20 18 3 10 12 16 20 13 7 -3 16 3 19 14 4 11 14 26 23 34
15 12 15 11 3 -12 -8 -14 -13 -28 -12 -33 1 -4 -9 -12 -23 -17 -14 -5 -25 -16
-25 -25 0 -18 -45 -49 -62 -42 -8 4 -6 6 5 6 9 1 17 8 17 16 0 12 -5 10 -24
-6 -15 -13 -22 -28 -19 -40 4 -14 1 -18 -10 -13 -8 3 -21 -3 -28 -13 -22 -30
-59 -51 -78 -46 -12 3 -25 -4 -35 -19 -13 -18 -18 -20 -25 -9 -5 8 -11 9 -15
3 -3 -6 -22 -9 -41 -8 -19 2 -35 0 -35 -4 0 -4 -13 -7 -29 -8 -22 0 -28 3 -24
14 3 8 0 14 -7 14 -7 0 -9 8 -5 21 5 16 4 19 -5 14 -7 -4 -16 -2 -20 5 -11 18
-45 3 -58 -26 -16 -34 -15 -45 3 -38 19 8 19 0 2 -18 -8 -7 -19 -27 -25 -43
l-10 -30 -1 28 c-1 15 -6 27 -12 27 -5 0 -7 5 -3 12 12 18 13 72 2 85 -5 7 -8
16 -5 20 3 4 -14 6 -38 5 -28 -3 -50 -11 -62 -25 -10 -11 -12 -17 -5 -13 6 4
12 2 12 -3 0 -15 -23 -14 -39 2 -8 6 -6 0 3 -15 11 -17 14 -28 7 -33 -6 -3
-11 -1 -11 4 0 16 -21 13 -42 -6 -10 -9 -18 -11 -18 -5 0 6 9 16 20 22 11 6
20 16 20 23 0 8 -3 8 -8 2 -4 -6 -23 -11 -42 -12 -19 0 -43 -4 -54 -8 -15 -7
-17 -5 -11 13 4 13 2 22 -4 22 -6 0 -20 8 -30 18 -56 51 -82 72 -91 72 -16 0
-11 17 7 24 9 4 25 -2 38 -14 12 -11 26 -20 32 -20 5 0 18 -9 28 -20 12 -14
22 -17 34 -11 21 12 71 2 71 -13 0 -6 5 -4 10 4 8 13 13 13 30 2 17 -10 23
-10 36 2 9 9 29 14 51 12 l36 -3 -22 18 c-18 15 -20 22 -11 39 12 22 25 26 35
10 10 -16 21 -12 33 13 6 12 11 16 11 9 1 -15 25 -42 37 -42 4 0 18 10 31 22
18 17 26 19 35 10 9 -9 8 -12 -5 -12 -9 0 -17 -7 -17 -16 0 -8 5 -12 10 -9 6
3 10 2 10 -4 0 -6 -10 -16 -22 -22 l-21 -11 23 -18 c13 -10 29 -16 34 -14 6 2
36 6 66 8 30 3 57 5 60 6 3 1 8 2 12 1 4 0 26 7 50 15 24 9 50 17 58 19 41 7
58 19 73 51 10 21 24 34 35 34 15 0 18 6 14 25 -2 14 0 25 5 25 5 0 10 6 11
13 3 32 10 51 20 55 7 2 12 12 12 23 0 10 3 19 8 19 4 0 7 11 7 24 0 16 -4 22
-14 18 -9 -3 -12 -1 -7 6 14 22 17 62 5 62 -8 0 -8 5 1 15 16 19 18 17 24 -25z
m-1073 -32 c-9 -20 -10 -18 -10 17 0 31 2 36 9 23 6 -10 7 -25 1 -40z m294 32
c3 -5 1 -10 -4 -10 -6 0 -11 5 -11 10 0 6 2 10 4 10 3 0 8 -4 11 -10z m625 0
c0 -5 -4 -10 -10 -10 -5 0 -10 5 -10 10 0 6 5 10 10 10 6 0 10 -4 10 -10z
m-336 -77 c23 1 47 6 54 10 6 5 17 5 22 2 6 -3 10 -1 10 5 0 7 8 9 22 4 19 -6
21 -5 10 8 -10 12 -8 18 10 34 21 18 21 18 15 0 -4 -10 -3 -24 3 -31 8 -10 6
-22 -8 -45 -19 -30 -20 -31 -33 -13 -14 19 -59 27 -59 11 0 -4 -18 -8 -39 -8
-45 0 -56 -12 -53 -55 2 -29 2 -29 -13 -11 -8 11 -15 25 -15 32 0 19 -27 36
-62 39 -23 2 -38 -5 -55 -24 l-24 -26 15 25 c14 24 14 27 -4 43 -21 18 -26 37
-10 37 6 0 10 -4 10 -10 0 -5 13 -10 28 -10 15 0 33 5 40 10 9 7 9 7 2 -2 -18
-21 -11 -28 31 -28 36 0 40 2 34 20 -3 11 -3 30 1 43 7 19 9 17 17 -21 10 -42
10 -42 51 -39z m-239 37 c-3 -5 -12 -7 -20 -3 -21 7 -19 13 6 13 11 0 18 -4
14 -10z m-315 -62 c0 -5 -4 -8 -10 -8 -5 0 -10 10 -10 23 0 18 2 19 10 7 5 -8
10 -18 10 -22z m-20 -32 c0 -2 -7 -7 -16 -10 -8 -3 -12 -2 -9 4 6 10 25 14 25
6z m685 -33 c0 -16 -8 -35 -17 -44 -10 -9 -15 -19 -11 -23 3 -3 1 -6 -5 -6
-13 0 -25 17 -15 22 5 1 16 20 25 41 10 20 19 37 21 37 1 0 3 -12 2 -27z
m-475 -9 c0 -8 -4 -12 -10 -9 -5 3 -10 13 -10 21 0 8 5 12 10 9 6 -3 10 -13
10 -21z m-160 2 c0 -3 -4 -8 -10 -11 -5 -3 -10 -1 -10 4 0 6 5 11 10 11 6 0
10 -2 10 -4z m315 -16 c3 -5 1 -10 -4 -10 -6 0 -11 5 -11 10 0 6 2 10 4 10 3
0 8 -4 11 -10z m-300 -49 c10 -16 23 -27 27 -25 4 3 8 -4 8 -15 0 -17 -6 -20
-35 -19 -35 1 -45 11 -24 24 8 4 4 13 -12 25 -20 16 -22 20 -9 29 21 14 23 13
45 -19z m189 14 c4 -13 2 -14 -14 -5 -23 13 -26 20 -6 20 8 0 16 -7 20 -15z
m170 -41 c9 -24 8 -26 -14 -14 -11 6 -18 15 -15 21 9 14 22 11 29 -7z m208 -6
c-7 -7 -12 -8 -12 -2 0 14 12 26 19 19 2 -3 -1 -11 -7 -17z m28 -43 c0 -2 -10
-10 -22 -16 -21 -11 -22 -11 -9 4 13 16 31 23 31 12z m-502 -102 c0 -21 -2
-23 -10 -9 -5 9 -6 21 -3 26 10 16 13 12 13 -17z m262 -63 c0 -5 -2 -10 -4
-10 -3 0 -8 5 -11 10 -3 6 -1 10 4 10 6 0 11 -4 11 -10z m130 -541 c0 13 3 22
6 18 3 -3 3 -24 -1 -45 -5 -30 -12 -41 -28 -46 -20 -5 -21 -4 -4 8 21 16 22
36 2 36 -8 0 -15 7 -15 15 0 9 -6 12 -17 8 -15 -5 -15 -3 1 9 18 14 21 14 38
-6 l17 -21 1 24z m62 -40 c5 -3 1 -8 -9 -11 -16 -4 -18 0 -13 36 4 37 5 38 8
11 2 -16 8 -33 14 -36z m-161 -26 c13 -16 12 -17 -3 -4 -10 7 -18 15 -18 17 0
8 8 3 21 -13z"/>
<path d="M1000 940 c0 -5 5 -10 10 -10 6 0 10 5 10 10 0 6 -4 10 -10 10 -5 0
-10 -4 -10 -10z"/>
<path d="M1535 930 c3 -5 11 -10 16 -10 6 0 7 5 4 10 -3 6 -11 10 -16 10 -6 0
-7 -4 -4 -10z"/>
</g>
</svg>
